# Blender v2.79 (sub 0) OBJ File: ''
# www.blender.org
mtllib building3.mtl
o Cube_Cube.001
v -19.829395 -7.365819 9.735936
v -19.829395 11.208326 9.735936
v -19.829395 -7.365819 -8.903131
v -19.829395 11.208326 -8.903131
v 21.256744 -7.365819 9.735936
v 21.256744 11.208326 9.735936
v 21.256744 -7.365819 -8.903131
v 21.256744 11.208326 -8.903131
v 7.232824 11.208326 9.735936
v 7.232939 -7.365819 9.735936
v 16.987801 -7.365819 9.735936
v 16.987499 11.208326 9.735936
v 7.232893 0.007795 9.735936
v 16.987682 0.007804 9.735936
v 8.496725 -7.365819 9.735936
v 15.644753 -7.365819 9.735936
v 8.497095 -1.216589 9.735936
v 15.645707 -1.216590 9.735936
v 9.424436 -6.641160 4.495116
v 16.572464 -6.641160 4.495116
v 9.424806 -0.491928 4.495116
v 16.573418 -0.491930 4.495116
vt 0.667105 0.000000
vt 0.667106 0.421927
vt 0.333687 0.421927
vt 0.333687 0.000000
vt 0.333687 0.421927
vt 0.000000 0.421927
vt 0.000000 0.000000
vt 0.333687 0.000000
vt 0.667105 0.421927
vt 0.667105 0.843853
vt 0.333687 0.843854
vt 0.333687 0.421927
vt 0.000000 0.843854
vt 0.000000 0.421927
vt 0.034673 0.421927
vt 0.034672 0.676356
vt 0.034671 0.843854
vt 0.667106 0.843854
vt 0.999999 0.421927
vt 0.999999 0.465766
vt 0.999999 0.479558
vt 0.999999 0.552963
vt 0.999999 0.565942
vt 0.999999 0.843853
vt 1.000000 0.000000
vt 1.000000 0.421927
vt 0.667106 0.144016
vt 0.667106 0.043842
vt 0.667106 0.000000
vt 0.188106 0.983538
vt 0.188101 0.843854
vt 0.246159 0.843856
vt 0.246159 0.983540
vt 0.113896 0.843854
vt 0.113897 0.676356
vt 0.113897 0.421927
vt 0.333687 0.421927
vt 0.333687 0.843854
vt 0.103632 0.843854
vt 0.103629 0.704169
vt 0.045571 0.704169
vt 0.045579 0.843854
vt 0.304034 0.963720
vt 0.246159 0.969554
vt 0.246159 0.849688
vt 0.304034 0.843854
vt 0.391557 0.969554
vt 0.333687 0.963720
vt 0.333687 0.843854
vt 0.391557 0.849688
vt 0.094050 0.843854
vt 0.094050 0.983538
vt 0.000000 1.000000
vt 0.000000 0.860315
vt 0.188101 0.860315
vt 0.188101 1.000000
vt 0.094050 0.983538
vt 0.094050 0.843854
vn -1.0000 0.0000 0.0000
vn 0.0000 0.0000 -1.0000
vn 1.0000 0.0000 0.0000
vn -0.0000 0.0000 1.0000
vn 0.0000 -1.0000 -0.0000
vn 0.0000 1.0000 0.0000
vn -0.0000 -0.9906 -0.1370
vn 0.0000 0.9906 0.1370
vn -0.9847 0.0002 -0.1743
vn 0.9847 -0.0001 0.1743
usemtl None
s off
f 1/1/1 2/2/1 4/3/1 3/4/1
f 3/5/2 4/6/2 8/7/2 7/8/2
f 7/9/3 8/10/3 6/11/3 5/12/3
f 5/13/4 6/14/4 12/15/4 14/16/4 11/17/4
f 3/18/5 7/9/5 5/19/5 11/20/5 16/21/5 15/22/5 10/23/5 1/24/5
f 8/25/6 4/26/6 2/2/6 9/27/6 12/28/6 6/29/6
f 20/30/4 22/31/4 21/32/4 19/33/4
f 10/34/4 13/35/4 9/36/4 2/37/4 1/38/4
f 11/17/4 14/16/4 13/35/4 10/34/4 15/39/4 17/40/4 18/41/4 16/42/4
f 13/35/4 14/16/4 12/15/4 9/36/4
f 18/43/7 17/44/7 21/45/7 22/46/7
f 15/47/8 16/48/8 20/49/8 19/50/8
f 16/51/9 18/52/9 22/53/9 20/54/9
f 17/55/10 15/56/10 19/57/10 21/58/10
